<svg width="26" height="26" viewBox="0 0 26 26" fill="none" xmlns="http://www.w3.org/2000/svg">
<path fill-rule="evenodd" clip-rule="evenodd" d="M4.15892 4.13187C9.05675 -0.76596 16.9977 -0.76596 21.8955 4.13187C26.7933 9.02969 26.7933 16.9706 21.8955 21.8685C20.4563 23.3077 18.245 24.6236 15.7811 25.213C13.3049 25.8054 10.5086 25.6764 7.98489 24.1168C7.85394 24.0359 7.77011 23.9842 7.70678 23.9473C7.66379 23.9222 7.64468 23.9126 7.64078 23.9107C7.59825 23.8941 7.58393 23.8924 7.58268 23.8922C7.58068 23.8918 7.56475 23.8893 7.51613 23.8931C7.52463 23.8924 7.51599 23.8921 7.46436 23.9037C7.40951 23.9162 7.33733 23.9348 7.21553 23.9663L7.18463 23.9743C6.47717 24.1577 5.90324 24.3065 5.44121 24.3936C4.97653 24.4812 4.52558 24.528 4.09177 24.4397C2.8303 24.183 1.84443 23.1971 1.58771 21.9356C1.49942 21.5018 1.54616 21.0508 1.63378 20.5862C1.72091 20.1241 1.86967 19.5502 2.05304 18.8428L2.06106 18.8118C2.09264 18.69 2.11123 18.6179 2.12362 18.5631C2.13527 18.5115 2.13489 18.5029 2.13424 18.5113C2.13793 18.4633 2.13543 18.4472 2.13504 18.4447C2.13468 18.4423 2.13241 18.4271 2.1164 18.3862C2.11442 18.3823 2.10488 18.3633 2.08001 18.3209C2.04323 18.2581 1.99169 18.175 1.91084 18.0449C0.349164 15.532 0.186621 12.7662 0.767159 10.296C1.34468 7.83867 2.66597 5.62482 4.15892 4.13187ZM20.6581 5.3693C16.4437 1.15489 9.61077 1.15489 5.39636 5.3693C4.12619 6.63947 2.9714 8.56609 2.47074 10.6964C1.97311 12.8138 2.13032 15.0826 3.3972 17.1212C3.40869 17.1397 3.42021 17.1582 3.43172 17.1766C3.55236 17.3702 3.67179 17.5618 3.74021 17.7336C3.8626 18.0409 3.90442 18.3154 3.87911 18.6452C3.86501 18.8291 3.81526 19.0199 3.76758 19.2029C3.76339 19.2189 3.75921 19.235 3.75508 19.2509C3.56179 19.9967 3.42836 20.5133 3.35348 20.9105C3.27782 21.3116 3.28327 21.4918 3.30255 21.5866C3.41925 22.16 3.86737 22.6081 4.44077 22.7248C4.53554 22.7441 4.71574 22.7496 5.11692 22.6739C5.51405 22.599 6.03071 22.4656 6.77646 22.2723C6.79244 22.2682 6.80848 22.264 6.82459 22.2598C7.0074 22.2121 7.19801 22.1625 7.38131 22.1483C7.71072 22.1228 7.98311 22.164 8.29029 22.2856C8.46168 22.3535 8.65407 22.4727 8.8489 22.5935C8.86754 22.605 8.8862 22.6166 8.90486 22.6281C10.9426 23.8874 13.2371 24.0222 15.374 23.5111C17.523 22.9969 19.447 21.8421 20.6581 20.631C24.8725 16.4166 24.8725 9.58371 20.6581 5.3693Z" fill="#FAFAFA"/>
<path d="M9.56158 12.8342C9.56158 13.4786 9.03924 14.0009 8.39491 14.0009C7.75058 14.0009 7.22824 13.4786 7.22824 12.8342C7.22824 12.1899 7.75058 11.6676 8.39491 11.6676C9.03924 11.6676 9.56158 12.1899 9.56158 12.8342Z" fill="#FAFAFA"/>
<path d="M14.2282 12.8342C14.2282 13.4786 13.7059 14.0009 13.0616 14.0009C12.4172 14.0009 11.8949 13.4786 11.8949 12.8342C11.8949 12.1899 12.4172 11.6676 13.0616 11.6676C13.7059 11.6676 14.2282 12.1899 14.2282 12.8342Z" fill="#FAFAFA"/>
<path d="M18.8949 12.8342C18.8949 13.4786 18.3726 14.0009 17.7282 14.0009C17.0839 14.0009 16.5616 13.4786 16.5616 12.8342C16.5616 12.1899 17.0839 11.6676 17.7282 11.6676C18.3726 11.6676 18.8949 12.1899 18.8949 12.8342Z" fill="#FAFAFA"/>
</svg>
