<svg width="27" height="27" viewBox="0 0 27 27" fill="none" xmlns="http://www.w3.org/2000/svg">
<path d="M12.125 1.125H14.875C15.6344 1.125 16.25 1.74061 16.25 2.5V3.28208C16.25 3.87031 16.6448 4.38134 17.188 4.60689C17.7315 4.83253 18.3643 4.74653 18.7804 4.33044L19.3336 3.77725C19.8705 3.24028 20.7411 3.24028 21.2781 3.77725L23.2227 5.72179C23.7596 6.25876 23.7596 7.12937 23.2227 7.66634L22.6696 8.21945C22.2534 8.63557 22.1674 9.26839 22.3931 9.8119C22.6187 10.3552 23.1297 10.75 23.718 10.75L24.5 10.75C25.2594 10.75 25.875 11.3656 25.875 12.125V14.875C25.875 15.6344 25.2594 16.25 24.5 16.25H23.718C23.1297 16.25 22.6187 16.6448 22.3931 17.1881C22.1675 17.7316 22.2534 18.3644 22.6696 18.7805L23.2227 19.3336C23.7597 19.8706 23.7597 20.7412 23.2227 21.2781L21.2781 23.2227C20.7412 23.7597 19.8706 23.7597 19.3336 23.2227L18.7805 22.6696C18.3644 22.2534 17.7316 22.1675 17.1881 22.3931C16.6448 22.6187 16.25 23.1297 16.25 23.7179V24.5C16.25 25.2594 15.6344 25.875 14.875 25.875H12.125C11.3656 25.875 10.75 25.2594 10.75 24.5V23.718C10.75 23.1297 10.3552 22.6187 9.8119 22.3931C9.26839 22.1674 8.63557 22.2534 8.21945 22.6696L7.66631 23.2227C7.12934 23.7597 6.25874 23.7597 5.72177 23.2227L3.77723 21.2781C3.24026 20.7412 3.24025 19.8706 3.77723 19.3336L4.33044 18.7804C4.74653 18.3643 4.83253 17.7315 4.60689 17.188C4.38134 16.6448 3.87031 16.25 3.28208 16.25H2.5C1.74061 16.25 1.125 15.6344 1.125 14.875V12.125C1.125 11.3656 1.74061 10.75 2.5 10.75L3.28205 10.75C3.8703 10.75 4.38134 10.3552 4.6069 9.81193C4.83255 9.26844 4.74655 8.63564 4.33044 8.21953L3.77725 7.66634C3.24028 7.12937 3.24028 6.25877 3.77725 5.7218L5.72179 3.77725C6.25876 3.24028 7.12937 3.24028 7.66634 3.77725L8.21953 4.33044C8.63564 4.74655 9.26844 4.83255 9.81192 4.6069C10.3552 4.38134 10.75 3.87029 10.75 3.28205V2.5C10.75 1.74061 11.3656 1.125 12.125 1.125Z" stroke="white" stroke-width="1.5"/>
<path d="M16.25 13.5C16.25 15.0188 15.0188 16.25 13.5 16.25C11.9812 16.25 10.75 15.0188 10.75 13.5C10.75 11.9812 11.9812 10.75 13.5 10.75C15.0188 10.75 16.25 11.9812 16.25 13.5Z" stroke="white" stroke-width="1.5"/>
</svg>
