<svg width="22" height="22" viewBox="0 0 22 22" fill="none" xmlns="http://www.w3.org/2000/svg">
<path d="M11.9375 1C11.9375 0.482233 11.5178 0.0625 11 0.0625C10.4822 0.0625 10.0625 0.482233 10.0625 1L10.0625 10.0625H1C0.482233 10.0625 0.0625 10.4822 0.0625 11C0.0625 11.5178 0.482233 11.9375 1 11.9375H10.0625V21C10.0625 21.5178 10.4822 21.9375 11 21.9375C11.5178 21.9375 11.9375 21.5178 11.9375 21V11.9375H21C21.5178 11.9375 21.9375 11.5178 21.9375 11C21.9375 10.4822 21.5178 10.0625 21 10.0625H11.9375L11.9375 1Z" fill="#FAFAFA"/>
</svg>
