<svg width="383" height="383" viewBox="0 0 383 383" fill="none" xmlns="http://www.w3.org/2000/svg">
<g filter="url(#filter0_d_2069_4594)">
<circle cx="193.5" cy="189.5" r="189.5" fill="#226DB3"/>
<circle cx="193.5" cy="189.5" r="184.5" stroke="#FFFAFA" stroke-width="10"/>
</g>
<path d="M58.3411 221.344C54.0104 221.344 49.6051 221.045 45.1251 220.448C40.7198 219.925 37.0611 219.216 34.1491 218.32C34.4478 215.184 34.6718 210.517 34.8211 204.32C35.0451 198.048 35.1571 192 35.1571 186.176C35.1571 173.856 34.5598 166.277 33.3651 163.44C36.3518 162.544 40.0851 161.835 44.5651 161.312C49.0451 160.715 53.4878 160.416 57.8931 160.416C65.5838 160.416 71.4451 161.797 75.4771 164.56C79.5838 167.248 81.6371 171.131 81.6371 176.208C81.6371 178.747 80.8158 181.099 79.1731 183.264C77.6051 185.429 75.4024 187.221 72.5651 188.64C76.2984 190.133 79.2104 192.224 81.3011 194.912C83.3918 197.525 84.4371 200.512 84.4371 203.872C84.4371 209.472 82.1598 213.803 77.6051 216.864C73.1251 219.851 66.7038 221.344 58.3411 221.344ZM49.2691 187.184C52.1811 186.363 56.0638 186.027 60.9171 186.176C62.6344 185.131 63.9784 183.824 64.9491 182.256C65.9944 180.688 66.5171 179.083 66.5171 177.44C66.5171 172.437 63.2318 169.936 56.6611 169.936C54.3464 169.936 52.0691 170.272 49.8291 170.944C49.5304 176.992 49.3438 182.405 49.2691 187.184ZM57.1091 214.064C65.2478 214.064 69.3171 210.667 69.3171 203.872C69.3171 201.408 68.5331 199.243 66.9651 197.376C65.3971 195.509 63.1571 194.016 60.2451 192.896C57.7064 192.896 54.0104 193.829 49.1571 195.696C49.1571 201.595 49.3064 207.307 49.6051 212.832C52.2184 213.653 54.7198 214.064 57.1091 214.064ZM143.211 220.56C135.595 220.56 129.659 218.581 125.403 214.624C121.222 210.592 119.131 204.917 119.131 197.6C119.131 189.909 118.982 182.443 118.683 175.2C118.384 167.957 117.936 163.216 117.339 160.976C120.176 160.528 123.088 160.304 126.075 160.304C128.464 160.304 131.227 160.528 134.363 160.976C133.915 171.28 133.691 182.853 133.691 195.696C133.691 205.179 137.611 209.92 145.451 209.92C154.187 209.92 158.555 205.664 158.555 197.152C158.555 177.216 158.256 165.157 157.659 160.976C159.451 160.528 161.243 160.304 163.035 160.304C164.603 160.304 166.507 160.528 168.747 160.976C168.523 165.232 168.299 170.944 168.075 178.112C167.926 185.28 167.851 191.589 167.851 197.04C167.851 203.909 165.984 209.547 162.251 213.952C158.518 218.357 152.171 220.56 143.211 220.56ZM209.043 220.672C207.55 220.672 205.833 220.448 203.891 220C204.489 212.384 204.787 201.483 204.787 187.296C204.787 176.096 204.339 167.323 203.443 160.976C205.907 160.528 208.446 160.304 211.059 160.304C213.971 160.304 216.883 160.528 219.795 160.976C221.513 165.157 224.126 171.168 227.635 179.008C231.219 186.848 234.467 193.755 237.379 199.728C240.291 193.605 243.502 186.699 247.011 179.008C250.521 171.243 253.171 165.232 254.963 160.976C257.054 160.528 259.705 160.304 262.915 160.304C265.529 160.304 268.59 160.528 272.099 160.976C271.726 164.709 271.427 169.824 271.203 176.32C270.979 182.741 270.867 188.827 270.867 194.576C270.867 208.24 271.465 216.715 272.659 220C269.747 220.448 266.798 220.672 263.811 220.672C261.422 220.672 258.659 220.448 255.523 220C255.897 216.267 256.195 211.189 256.419 204.768C256.643 198.272 256.755 192.149 256.755 186.4C256.755 182.368 256.718 179.531 256.643 177.888C253.433 184.533 249.923 192 246.115 200.288C242.382 208.501 239.47 215.072 237.379 220C236.11 220.373 235.027 220.56 234.131 220.56C233.31 220.56 232.265 220.373 230.995 220C227.635 211.861 221.886 199.243 213.747 182.144C213.673 184.907 213.635 189.051 213.635 194.576C213.635 208.016 214.046 216.491 214.867 220C213.001 220.448 211.059 220.672 209.043 220.672ZM318.075 220.672C315.387 220.672 312.363 220.448 309.003 220C309.377 216.341 309.675 211.376 309.899 205.104C310.123 198.832 310.235 192.896 310.235 187.296C310.235 174.453 309.638 166.501 308.443 163.44C310.982 162.544 314.379 161.835 318.635 161.312C322.966 160.715 327.334 160.416 331.739 160.416C339.803 160.416 345.963 162.133 350.219 165.568C354.55 168.928 356.715 173.781 356.715 180.128C356.715 184.384 355.595 188.192 353.355 191.552C351.19 194.837 348.129 197.413 344.171 199.28C340.214 201.147 335.697 202.08 330.619 202.08C328.23 202.08 326.139 201.931 324.347 201.632C324.497 211.189 325.057 217.312 326.027 220C323.489 220.448 320.838 220.672 318.075 220.672ZM334.763 194.128C336.779 192.933 338.422 191.179 339.691 188.864C340.961 186.549 341.595 183.936 341.595 181.024C341.595 173.632 337.526 169.936 329.387 169.936C327.67 169.936 326.177 170.085 324.907 170.384C324.459 178.896 324.235 186.139 324.235 192.112C328.79 193.456 332.299 194.128 334.763 194.128Z" fill="white"/>
<defs>
<filter id="filter0_d_2069_4594" x="0" y="0" width="383" height="383" filterUnits="userSpaceOnUse" color-interpolation-filters="sRGB">
<feFlood flood-opacity="0" result="BackgroundImageFix"/>
<feColorMatrix in="SourceAlpha" type="matrix" values="0 0 0 0 0 0 0 0 0 0 0 0 0 0 0 0 0 0 127 0" result="hardAlpha"/>
<feOffset dx="-4" dy="4"/>
<feComposite in2="hardAlpha" operator="out"/>
<feColorMatrix type="matrix" values="0 0 0 0 0 0 0 0 0 0 0 0 0 0 0 0 0 0 0.25 0"/>
<feBlend mode="normal" in2="BackgroundImageFix" result="effect1_dropShadow_2069_4594"/>
<feBlend mode="normal" in="SourceGraphic" in2="effect1_dropShadow_2069_4594" result="shape"/>
</filter>
</defs>
</svg>
