<svg width="21" height="26" viewBox="0 0 21 26" fill="none" xmlns="http://www.w3.org/2000/svg">
<path d="M8.84662 8.40338C8.51712 8.07387 7.98288 8.07387 7.65338 8.40338C7.32387 8.73288 7.32387 9.26712 7.65338 9.59662L9.44324 11.3865L7.65338 13.1764C7.32387 13.5059 7.32387 14.0401 7.65338 14.3696C7.98288 14.6991 8.51712 14.6991 8.84662 14.3696L10.6365 12.5797L12.4263 14.3696C12.7559 14.6991 13.2901 14.6991 13.6196 14.3696C13.9491 14.0401 13.9491 13.5059 13.6196 13.1764L11.8297 11.3865L13.6196 9.59662C13.9491 9.26712 13.9491 8.73288 13.6196 8.40338C13.2901 8.07387 12.7559 8.07387 12.4263 8.40338L10.6365 10.1932L8.84662 8.40338Z" fill="#FAFAFA"/>
<path fill-rule="evenodd" clip-rule="evenodd" d="M10.5 0.28125C5.00624 0.28125 0.65625 5.05437 0.65625 10.8098C0.65625 12.6556 1.57324 14.8291 2.72697 16.8688C3.89937 18.9416 5.39574 21.0107 6.70766 22.6837L6.75142 22.7395C7.39178 23.5562 7.93729 24.2519 8.46627 24.7324C9.04339 25.2567 9.67981 25.5999 10.5 25.5999C11.3202 25.5999 11.9566 25.2567 12.5337 24.7324C13.0627 24.2519 13.6082 23.5562 14.2486 22.7395L14.2923 22.6837C15.6043 21.0107 17.1006 18.9416 18.273 16.8688C19.4268 14.8291 20.3438 12.6556 20.3438 10.8098C20.3438 5.05437 15.9938 0.28125 10.5 0.28125ZM2.34375 10.8098C2.34375 5.86768 6.05263 1.96875 10.5 1.96875C14.9474 1.96875 18.6562 5.86768 18.6562 10.8098C18.6562 12.1896 17.9367 14.0359 16.8042 16.038C15.6904 18.0071 14.251 20.0018 12.9644 21.6424C12.2681 22.5303 11.8096 23.1104 11.3991 23.4833C11.0246 23.8235 10.7747 23.9124 10.5 23.9124C10.2253 23.9124 9.97536 23.8235 9.60092 23.4833C9.19036 23.1104 8.73189 22.5303 8.03555 21.6424C6.749 20.0018 5.30957 18.0071 4.19578 16.038C3.06332 14.0359 2.34375 12.1896 2.34375 10.8098Z" fill="#FAFAFA"/>
</svg>
